<svg id="Layer_1" data-name="Layer 1" xmlns="http://www.w3.org/2000/svg" viewBox="0 0 7856 1500"><defs><style>.cls-1{fill:#01e8dc;}</style></defs><path class="cls-1" d="M2231.34,1205.62H1733.29V995.05h76.58V536.62h-76.58v-211h537.92q158.2,0,244.91,18.37,85.43,19,134.17,75.41Q2699,477,2699,553.49q0,74.65-46.2,118.91-47.46,45.55-115.17,63.26,93,27.86,143,86,50.63,59.46,50.62,133.45,0,88.57-56.95,150.55Q2617.38,1167,2518,1186,2419.92,1205.63,2231.34,1205.62Zm-81-686.74V678.62h75.31q76.57,0,100.63-22,22.77-22,22.78-57.86,0-30.79-20.89-55.33t-114.55-24.53Zm0,320.74v173h76.58q73.41,0,105.69-18.94,31.63-18.95,31.64-66.94,0-44.81-28.49-66.29-28.5-20.82-110.11-20.83Z"/><path class="cls-1" d="M3352,1205.62H2816.69V995.05h92.39V536.62h-95.54v-211H3681V615.71H3446.89V536.62H3250.08V671.93H3402v179H3250.08V995.05H3352Z"/><path class="cls-1" d="M4662.05,1205.62H4167.27V995.05h75.94V536.62H4142v160H3976.79v-371H4850v371H4684.82v-160H4584.21V995.05h77.84Z"/><path class="cls-1" d="M5198.27,1205.62H4849.66V995.05h67.06l165.14-458.43H5011v-211h632.69v211h-70.86l168.3,458.43h64.53v210.57H5346.33V1012.45h77.19L5390,901.62H5164.74l-38.6,110.83h72.13Zm82.89-657-82.89,244h157.55Z"/><path class="cls-1" d="M6076.18,1205.62H5878.27v-282h197.91q35.39,115,133.42,115,70.8,0,70.81-57,0-29.76-24.66-49.39-26.57-21.51-111.92-59.51Q6036.33,824,5985.75,788.51q-47.43-32.29-80.92-89.28-33.51-56.36-33.51-124.74,0-122.83,79.67-191.86,79-69,194.75-69t196,66v-54h199.17v250H6344.27q-36-103-127.72-103-64.5,0-64.5,55,0,26.55,18.34,39.81,17.7,13.92,114.44,61.31,129.61,64.5,173.25,94.19,22.13,14.55,45.21,40.78a300.69,300.69,0,0,1,38.25,54q34.77,61.93,34.78,134,0,110.63-82.21,187.11-82.21,77.76-207.39,77.75-116.34,0-210.54-69Z"/><path class="cls-1" d="M7166.16,1205.62H6689.21V995h67.06V536.29h-69V325.62h478.84V536.29h-69.58V995h69.58Zm547.16,0H7257.88V995h42.37L7107.33,744.43l223.92-208.14h-71.48V325.62h433.31V536.29h-68.33l-179.64,167L7669.68,995h43.64Z"/><g id="Layer_2" data-name="Layer 2"><g id="Layer_1-2" data-name="Layer 1-2"><g id="Layer_2-2" data-name="Layer 2-2"><path class="cls-1" d="M840.9,1301.19h0a599.18,599.18,0,0,1-200.5-34.06c-66.77-23.64-126.58-58.46-177.77-103.48A508.34,508.34,0,0,1,334.34,989.9C302.13,918.57,285.06,838.52,283.59,752l0-1.12,0-1.13c1.48-86.56,18.57-166.62,50.79-238A508.33,508.33,0,0,1,462.66,338c51.2-45,111-79.83,177.8-103.46a599.18,599.18,0,0,1,200.46-34H841a599.09,599.09,0,0,1,200.49,34.07c66.78,23.64,126.59,58.45,177.77,103.48a508.27,508.27,0,0,1,128.24,173.74c32.21,71.33,49.28,151.38,50.74,237.93l0,1.11,0,1.12c-1.47,86.57-18.56,166.63-50.78,238a508.3,508.3,0,0,1-128.27,173.75c-51.19,45-111,79.84-177.79,103.47A599.24,599.24,0,0,1,840.9,1301.19ZM415.31,750.85c5.43,287.6,224.27,418.62,425.56,418.63s420.16-131,425.63-418.63c-5.43-287.59-224.26-418.6-425.54-418.62h0C639.63,332.23,420.78,463.22,415.31,750.85Z"/><path class="cls-1" d="M845.62,1051.58a322.43,322.43,0,0,1-107.87-18.34,294.29,294.29,0,0,1-96.7-56.34,278.5,278.5,0,0,1-70.29-95.19c-17.43-38.58-26.67-81.63-27.46-128l0-1.12,0-1.13c.79-46.33,10-89.38,27.45-128A278.64,278.64,0,0,1,641,528.33,294.13,294.13,0,0,1,737.74,472a322.32,322.32,0,0,1,107.85-18.34h0A322.25,322.25,0,0,1,953.48,472a294.21,294.21,0,0,1,96.7,56.34,278.51,278.51,0,0,1,70.28,95.2c17.43,38.58,26.66,81.64,27.45,128v2.24c-.8,46.33-10,89.38-27.46,128a278.47,278.47,0,0,1-70.28,95.19,294.07,294.07,0,0,1-96.69,56.34A322.42,322.42,0,0,1,845.62,1051.58ZM675,752.62c2.52,115.52,87.37,167.24,170.6,167.24s168-51.73,170.57-167.24c-2.5-115.51-87.36-167.24-170.59-167.25S677.53,637.1,675,752.62Z"/><path class="cls-1" d="M1257.54,359.36h-.42a106.45,106.45,0,0,1-42.32-9.1,92.57,92.57,0,0,1-31.64-23.37c-16-18.16-24.76-42.23-24.75-67.77s8.8-49.59,24.76-67.74A92.69,92.69,0,0,1,1214.82,168a106.38,106.38,0,0,1,42.3-9.07h.84a106.69,106.69,0,0,1,42.32,9.09,92.45,92.45,0,0,1,31.64,23.36c16,18.16,24.78,42.22,24.78,67.75s-8.8,49.59-24.77,67.75a92.84,92.84,0,0,1-31.65,23.36,106.87,106.87,0,0,1-42.32,9.09Zm0-151c-36.69.81-49.72,27.82-49.73,50.78s13,50,49.73,50.83c36.73-.83,49.77-27.84,49.77-50.8S1294.26,209.18,1257.53,208.35Z"/><path class="cls-1" d="M358.11,338.71l-17.34-24.38c-16.32-22.95-22.5-48.72-17.88-74.52,4.06-22.73,16.48-43.89,34.95-59.58s41.38-24.53,64.48-24.88C448.56,155,473,165.21,493,185l21.5,21.3-42,28-14.3-13.66c-16.45-15.71-38.61-14-53.88-7.16-15.08,6.76-30.91,22.08-30.14,44.79l0,.44v.43a50.39,50.39,0,0,0,7.92,27.19l10.43,16.33Z"/><path class="cls-1" d="M841.85,1432c-141.2,0-276-40.39-379.47-113.73l-26.14-18.52,24.57-20.56c18.48-15.48,18.26-38.72,11.89-55.31-6.28-16.36-21.56-33.54-45.65-32.68l-.81,0c-36.14.11-49.24,27.14-49.49,50.26s12.28,50.43,48.36,51.3l.75,49.35c-1.71.09-3.42.14-5.12.14-35.18,0-67.54-19.75-85.34-52.46a103.67,103.67,0,0,1-12.78-51.52,94.42,94.42,0,0,1,7.32-34.68,571,571,0,0,1-66.86-86.31,631.09,631.09,0,0,1-56.86-114.5,696.56,696.56,0,0,1-34-124.15,740.06,740.06,0,0,1,.12-257.89,696.79,696.79,0,0,1,34.08-124.17,631.76,631.76,0,0,1,57-114.49,566.69,566.69,0,0,1,80.11-99.72l19.8-19.56,17.06,22c13.25,17.07,29.7,24.52,47.57,21.54,19.11-3.2,36.83-18.22,43.08-36.54,5.86-17.16,1.16-34.63-13.58-50.54l-19.12-20.62,22.92-16.3C564.94,108.62,700,68,841.65,68c135,0,264.14,36.91,365.72,104.25a94.25,94.25,0,0,1,52.69-13.52c22.15.9,44.08,9.63,61.75,24.58s29.91,35.14,34.45,56.84a94.42,94.42,0,0,1-4.83,54.73,682.55,682.55,0,0,1-.36,910.65,94.3,94.3,0,0,1,5.28,55.11c-4.47,21.88-16.75,42.23-34.58,57.3s-40,23.8-62.29,24.58a94.15,94.15,0,0,1-53-14.11C1105.06,1395.32,976.38,1432,841.85,1432ZM513.1,1292.79c94.79,59.81,211.78,89.74,328.72,89.74,126.28,0,252.51-34.85,350.91-104.57l16.13-11.43,14.68,13.24c10.72,9.66,22,13.42,32.65,13.42,13,0,25-5.66,33.69-13,15.66-13.23,27.81-38.32,10.53-65.5l-10.31-16.22,13.19-14a629.16,629.16,0,0,0,172.32-434.47V750a629.18,629.18,0,0,0-171.84-434l-13-13.82,10-16.14c16.77-27,4.63-51.9-10.86-65s-42-21-65.83,0l-14.69,12.93-16-11.35c-98.61-70.13-225.2-105.2-351.75-105.2-117.92,0-235.81,30.43-331.14,91.3a98.94,98.94,0,0,1,10.21,26.83,93.57,93.57,0,0,1-2.94,50.24,106.38,106.38,0,0,1-81.69,69.29,93.48,93.48,0,0,1-50-5.25,98.66,98.66,0,0,1-25-14.54c-96,104.81-150.69,254.33-150.76,414.47-.06,160.39,54.66,310.17,150.89,415A91.83,91.83,0,0,1,384,1150.41a103.67,103.67,0,0,1,41.7-8.59,92.32,92.32,0,0,1,58.65,18.29,103.07,103.07,0,0,1,34.48,46.06,104.11,104.11,0,0,1,5.23,57.67A93.29,93.29,0,0,1,513.1,1292.79Z"/><path class="cls-1" d="M426.34,1342.26c-.8,0-1.61,0-2.41,0l.08-49.38A50.33,50.33,0,0,0,457.7,1279l14.21-13.48,45,29.58-23.69,21.41A99.32,99.32,0,0,1,426.34,1342.26Z"/><path class="cls-1" d="M1257.54,1342.29h-.42a106.62,106.62,0,0,1-42.32-9.09,92.6,92.6,0,0,1-31.64-23.38c-16-18.16-24.76-42.22-24.75-67.76s8.8-49.59,24.76-67.74a92.56,92.56,0,0,1,31.65-23.35,106.55,106.55,0,0,1,42.3-9.08h.84a106.87,106.87,0,0,1,42.32,9.09,92.61,92.61,0,0,1,31.64,23.37c16,18.15,24.78,42.21,24.78,67.75s-8.8,49.59-24.77,67.74a92.58,92.58,0,0,1-31.65,23.36,106.69,106.69,0,0,1-42.32,9.09Zm0-151c-36.69.81-49.72,27.82-49.73,50.78s13,50,49.73,50.83c36.73-.83,49.77-27.85,49.77-50.8S1294.26,1192.1,1257.53,1191.28Z"/></g></g></g></svg>