<svg id="Layer_1" data-name="Layer 1" xmlns="http://www.w3.org/2000/svg" viewBox="0 0 3000 3000"><defs><style>.cls-1{fill:#01e8dc;}</style></defs><path class="cls-1" d="M349.08,2659H117.48v-98h35.61V2347.63H117.48v-98H367.62q73.56,0,113.89,8.54,39.72,8.82,62.38,35,22.67,26.78,22.66,62.38,0,34.74-21.48,55.33-22.07,21.18-53.56,29.43,43.26,12.95,66.51,40,23.54,27.66,23.54,62.09,0,41.2-26.48,70-26.49,28.55-72.69,37.37Q436.78,2659,349.08,2659Zm-37.67-319.58v74.75h35q35.61,0,46.79-10.3,10.61-10.31,10.6-27.08a39,39,0,0,0-9.71-25.89q-9.72-11.49-53.27-11.48Zm0,149.2v80.63H347q34.14,0,49.15-8.83,14.7-8.82,14.71-31.19,0-20.89-13.24-30.9-13.25-9.71-51.21-9.71Z"/><path class="cls-1" d="M870.25,2659H621.58v-98h43V2347.63H620.11v-98h403.16v134.78H914.39v-36.78H822.87v63h70.62v83.28H822.87V2561h47.38Z"/><path class="cls-1" d="M1479.11,2659H1249.28v-98h35.31V2347.63H1237.5v74.45h-76.8V2249.63h405.81v172.45H1489.7v-74.45h-46.79V2561h36.2Z"/><path class="cls-1" d="M1728.65,2659H1566.51v-98h31.19l76.81-213.35h-33v-98h294.27v98h-33L1981.14,2561h30v98H1797.51v-89.75h35.91l-15.6-51.5H1713.06l-18,51.5h33.54Zm38.55-305.46-38.55,113.3h73.28Z"/><path class="cls-1" d="M2137.11,2659H2045V2527.73h92.11q16.47,53.57,62.09,53.56,33,0,33-26.49,0-13.83-11.47-23-12.36-10-52.09-27.67-50-22.65-73.57-39.13-22.08-15-37.67-41.5-15.6-26.19-15.6-58,0-57.09,37.08-89.17,36.79-32.07,90.64-32.07t91.23,30.6v-25.31h92.69v116.54h-91.52q-16.77-48.26-59.44-48.26-30,0-30,25.6,0,12.36,8.54,18.54,8.23,6.48,53.26,28.54,60.33,30,80.63,43.85,10.3,6.78,21,19a139.44,139.44,0,0,1,17.81,25.16,125.38,125.38,0,0,1,16.18,62.39q0,51.5-38.25,87.11-38.27,36.2-96.53,36.19-54.15,0-98-32.07Z"/><path class="cls-1" d="M2643.86,2659H2422v-98h31.19V2347.63h-32.07v-98h222.77v98h-32.37V2561h32.37Zm254.55,0H2686.53v-98h19.71l-89.75-116.53,104.17-96.82h-33.25v-98H2889v98h-31.78l-83.58,77.69L2878.1,2561h20.31Z"/><g id="Layer_2" data-name="Layer 2"><g id="Layer_1-2" data-name="Layer 1-2"><g id="Layer_2-2" data-name="Layer 2-2"><path class="cls-1" d="M1496.9,1935.7h-.06c-102.11,0-201.65-16.92-295.85-50.27-98.54-34.88-186.8-86.26-262.33-152.7-80.88-71.14-144.55-157.4-189.24-256.38-47.53-105.26-72.73-223.38-74.89-351.1l0-1.65,0-1.66c2.18-127.73,27.4-245.87,74.94-351.13,44.71-99,108.4-185.25,189.3-256.39,75.54-66.43,163.81-117.8,262.36-152.67,94.19-33.33,193.71-50.23,295.79-50.23h.09c102.1,0,201.64,16.93,295.84,50.28,98.53,34.88,186.79,86.25,262.32,152.69,80.88,71.14,144.54,157.4,189.23,256.38,47.53,105.25,72.72,223.38,74.88,351.09l0,1.65,0,1.65c-2.18,127.74-27.39,245.88-74.93,351.14-44.71,99-108.39,185.25-189.28,256.39-75.55,66.43-163.82,117.8-262.36,152.67C1698.52,1918.8,1599,1935.7,1496.9,1935.7Zm-628-812.1c8,424.4,330.94,617.72,628,617.74s620-193.29,628.07-617.74c-8-424.37-330.92-617.69-627.93-617.71h-.06C1199.9,505.89,877,699.18,868.89,1123.6Z"/><path class="cls-1" d="M1503.86,1567.36a475.52,475.52,0,0,1-159.17-27.07c-53.49-18.93-101.5-46.9-142.69-83.13a411,411,0,0,1-103.72-140.45c-25.72-56.94-39.35-120.47-40.52-188.82l0-1.66,0-1.66c1.16-68.37,14.79-131.9,40.51-188.84A410.88,410.88,0,0,1,1202,795.26c41.19-36.24,89.2-64.21,142.69-83.14a475.86,475.86,0,0,1,159.15-27.06h0A475.79,475.79,0,0,1,1663,712.14c53.49,18.94,101.5,46.91,142.7,83.14a411.13,411.13,0,0,1,103.71,140.47c25.71,56.94,39.33,120.47,40.49,188.83l0,1.65,0,1.66c-1.17,68.36-14.8,131.88-40.51,188.82a411.06,411.06,0,0,1-103.71,140.46c-41.18,36.22-89.19,64.19-142.68,83.13A475.66,475.66,0,0,1,1503.86,1567.36Zm-251.74-441.14c3.72,170.45,128.94,246.78,251.74,246.78s248-76.34,251.7-246.79c-3.69-170.45-128.91-246.78-251.73-246.79S1255.83,955.75,1252.12,1126.22Z"/><path class="cls-1" d="M2111.69,545.92h-.61c-22.58-.39-43.59-4.9-62.45-13.42A136.7,136.7,0,0,1,2001.94,498c-23.55-26.8-36.53-62.32-36.52-100s13-73.18,36.55-99.95a136.45,136.45,0,0,1,46.69-34.47c18.85-8.51,39.86-13,62.43-13.38h1.22c22.58.38,43.59,4.9,62.45,13.41a136.84,136.84,0,0,1,46.7,34.47c23.58,26.8,36.56,62.3,36.56,100s-13,73.18-36.56,100a136.49,136.49,0,0,1-46.7,34.47c-18.86,8.52-39.87,13-62.45,13.42Zm0-222.84c-54.13,1.2-73.37,41.06-73.37,74.93s19.22,73.79,73.38,75c54.19-1.22,73.44-41.09,73.44-75S2165.88,324.3,2111.68,323.08Z"/><path class="cls-1" d="M784.48,515.44l-25.58-36c-24.08-33.86-33.2-71.89-26.39-110,6-33.54,24.32-64.76,51.58-87.92s61.06-36.19,95.15-36.71c38.72-.58,74.76,14.55,104.25,43.77l31.73,31.43-62,41.36-21.11-20.16c-24.26-23.17-57-20.64-79.5-10.55-22.25,10-45.62,32.57-44.48,66.09l0,.64v.64a74.14,74.14,0,0,0,11.69,40.11l15.38,24.1Z"/><path class="cls-1" d="M1498.31,2128.7c-208.37,0-407.23-59.59-560-167.82l-38.57-27.33L936,1903.21c27.27-22.84,27-57.13,17.55-81.61-9.26-24.15-31.82-49.49-67.37-48.22l-1.19,0c-53.33.16-72.66,40.06-73,74.17s18.12,74.42,71.35,75.69l1.11,72.83q-3.8.2-7.56.2c-51.91,0-99.66-29.14-125.93-77.41a152.93,152.93,0,0,1-18.85-76,139,139,0,0,1,10.81-51.18,842.9,842.9,0,0,1-98.67-127.36,930.86,930.86,0,0,1-83.9-169,1027.54,1027.54,0,0,1-50.11-183.2,1092,1092,0,0,1,.17-380.55A1027.9,1027.9,0,0,1,560.71,748.4a931.33,931.33,0,0,1,84.08-168.94A837.33,837.33,0,0,1,763,432.3l29.22-28.86,25.17,32.45c19.55,25.2,43.83,36.18,70.2,31.78,28.21-4.71,54.35-26.88,63.57-53.91,8.65-25.32,1.71-51.11-20-74.58l-28.2-30.43,33.81-24.05C1089.69,175.92,1289,116,1498,116c199.27,0,389.77,54.45,539.67,153.82a139.11,139.11,0,0,1,77.75-19.94c32.69,1.33,65,14.21,91.11,36.27S2250.67,338,2257.38,370a139.33,139.33,0,0,1-7.13,80.74,1007.18,1007.18,0,0,1-.53,1343.78,139.21,139.21,0,0,1,7.79,81.32c-6.6,32.29-24.72,62.32-51,84.56s-59,35.12-91.91,36.26a139.12,139.12,0,0,1-78.3-20.81C1886.7,2074.58,1696.82,2128.69,1498.31,2128.7Zm-485.12-205.41c139.87,88.27,312.51,132.43,485.07,132.43,186.33,0,372.6-51.42,517.8-154.31l23.81-16.86,21.66,19.53c15.82,14.27,32.51,19.8,48.18,19.8,19.25,0,37-8.34,49.72-19.12,23.1-19.52,41-56.55,15.53-96.65l-15.22-23.94,19.47-20.63c164.32-174.06,254.62-401.74,254.27-641.1v-.11c.36-239-89.69-466.43-253.56-640.4l-19.22-20.4,14.78-23.81c24.75-39.86,6.83-76.59-16-95.93s-62-31-97.15,0l-21.68,19.08L2017.1,344.1C1871.59,240.62,1684.79,188.85,1498,188.85c-174,0-348,44.91-488.63,134.73a145.67,145.67,0,0,1,15.06,39.59,138,138,0,0,1-4.33,74.13A157,157,0,0,1,899.6,539.56a138.09,138.09,0,0,1-73.8-7.75A145.79,145.79,0,0,1,789,510.36C647.29,665,566.62,885.65,566.52,1121.94c-.1,236.69,80.64,457.71,222.65,612.45a134.76,134.76,0,0,1,33.51-21.19c18.65-8.27,39.35-12.54,61.53-12.68a136.29,136.29,0,0,1,86.54,27c22.7,16.87,40.29,40.37,50.88,68s13.31,57.14,7.73,85.09A137.51,137.51,0,0,1,1013.19,1923.29Z"/><path class="cls-1" d="M885.17,1996.29c-1.18,0-2.37,0-3.56,0l.13-72.87A74.29,74.29,0,0,0,931.45,1903l21-19.89,66.34,43.66-35,31.58A146.57,146.57,0,0,1,885.17,1996.29Z"/><path class="cls-1" d="M2111.69,1996.34h-.61c-22.58-.38-43.59-4.9-62.45-13.42a136.7,136.7,0,0,1-46.69-34.49c-23.56-26.8-36.53-62.31-36.52-100s13-73.17,36.55-100a136.29,136.29,0,0,1,46.69-34.46c18.85-8.51,39.86-13,62.43-13.39h1.22c22.58.38,43.59,4.9,62.45,13.41a136.74,136.74,0,0,1,46.7,34.48c23.58,26.79,36.56,62.29,36.56,100s-13,73.18-36.56,100a136.75,136.75,0,0,1-46.7,34.47c-18.86,8.51-39.87,13-62.45,13.41Zm0-222.84c-54.13,1.2-73.37,41.06-73.37,74.93s19.22,73.8,73.38,75c54.19-1.22,73.44-41.09,73.44-75S2165.88,1774.72,2111.68,1773.5Z"/></g></g></g><path class="cls-1" d="M221.89,2805.87H174.94v121.25H136.18V2805.87H89.23V2776.8H221.89Z"/><path class="cls-1" d="M326.48,2927.12h-88v-26.65h24.63v-97H238.45V2776.8h88v26.65H301.85v97h24.63Z"/><path class="cls-1" d="M426,2930.05a93.33,93.33,0,0,1-30.94-5,64.12,64.12,0,0,1-40.18-39.17q-5.61-14.64-5.6-33.82a93.21,93.21,0,0,1,5.35-32.41,69.24,69.24,0,0,1,15.54-24.93,66,66,0,0,1,24.28-15.45,89.29,89.29,0,0,1,31.65-5.45,124.7,124.7,0,0,1,17.12,1.06,118.17,118.17,0,0,1,14.08,2.78,98.78,98.78,0,0,1,12.27,4.29q5.49,2.37,9.64,4.39v36.44h-4.44q-2.84-2.4-7.12-5.72a94.09,94.09,0,0,0-9.74-6.53,68.49,68.49,0,0,0-12-5.43,42.56,42.56,0,0,0-13.83-2.21,47,47,0,0,0-15.55,2.57A38.07,38.07,0,0,0,402.9,2814a41.9,41.9,0,0,0-9.64,15.21q-3.67,9.47-3.68,23,0,14.1,4,23.58a41,41,0,0,0,10,14.91,36.85,36.85,0,0,0,13.73,7.91,50.15,50.15,0,0,0,14.94,2.36,47.66,47.66,0,0,0,14-2.11,54.43,54.43,0,0,0,12.77-5.72,84.26,84.26,0,0,0,9.18-6.23q4.25-3.32,7-5.72h4v35.94q-5.66,2.52-10.81,4.74a89.31,89.31,0,0,1-10.8,3.84,130.2,130.2,0,0,1-13.83,3.23A110.59,110.59,0,0,1,426,2930.05Z"/><path class="cls-1" d="M648,2927.12H600.39L555.46,2867l-9,11.11v49H507.7V2776.8h38.76v68.1l53.71-68.1H645.1l-58.76,69.56Z"/><path class="cls-1" d="M775.84,2927.12H667.11V2776.8H775.84v29.07H705.67v26h65.12v29.07H705.67v37.16h70.17Z"/><path class="cls-1" d="M926,2805.87H879v121.25H840.25V2805.87h-47V2776.8H926Z"/><path class="cls-1" d="M1030.55,2927.12h-88v-26.65h24.63v-97H942.52V2776.8h88v26.65h-24.63v97h24.63Z"/><path class="cls-1" d="M1198.85,2927.12h-37.36l-63.8-103.18v103.18h-35.54V2776.8h46.34l54.82,86.11V2776.8h35.54Z"/><path class="cls-1" d="M1370.17,2918.54a202.38,202.38,0,0,1-26.75,7.82,145.89,145.89,0,0,1-33.22,3.89q-38.37,0-60.07-20.85t-21.7-57.59q0-35,21.9-56.49t61.08-21.45a144.68,144.68,0,0,1,28.27,2.67q13.42,2.68,29.88,10.66v35.23h-4.34q-2.82-2.11-8.28-6a100.92,100.92,0,0,0-10.49-6.61,69.56,69.56,0,0,0-13.68-5.55,58.08,58.08,0,0,0-16.61-2.33,54.63,54.63,0,0,0-18.68,3,43.26,43.26,0,0,0-15,9.29,42.4,42.4,0,0,0-10,15.4,58.55,58.55,0,0,0-3.68,21.55q0,24.95,13.22,38.16t39.07,13.23c1.48,0,3.12,0,4.9-.1s3.42-.17,4.9-.31v-29.47h-30v-28.37h69.36Z"/><path class="cls-1" d="M1595.91,2879.87q0,22.22-18.83,36.1T1526,2929.85a143.12,143.12,0,0,1-32.56-3.28,168.74,168.74,0,0,1-26-8.33v-36h4.24a89.82,89.82,0,0,0,26.91,14.73,87.21,87.21,0,0,0,28.62,5.15q3.52,0,9.29-.6a37.44,37.44,0,0,0,9.38-2,23.4,23.4,0,0,0,7.32-4.54q2.88-2.73,2.88-8.08a10.9,10.9,0,0,0-4.19-8.53q-4.18-3.58-12.26-5.5-8.49-2-17.92-3.79a138.9,138.9,0,0,1-17.72-4.49q-19-6.17-27.31-16.71t-8.33-26.2q0-21,18.83-34.27t48.41-13.28a149.94,149.94,0,0,1,29.32,2.88,136.56,136.56,0,0,1,25.09,7.22v34.62h-4.14a79.74,79.74,0,0,0-22.26-12.16,76.74,76.74,0,0,0-26.9-4.9,70.54,70.54,0,0,0-9.64.66,38,38,0,0,0-9.24,2.47,17.63,17.63,0,0,0-6.77,4.6,10.09,10.09,0,0,0-2.82,7,10.48,10.48,0,0,0,4.54,9.14q4.54,3.18,17.16,5.8,8.28,1.73,15.9,3.34a163,163,0,0,1,16.41,4.44q17.26,5.66,25.49,15.39T1595.91,2879.87Z"/><path class="cls-1" d="M1754.71,2776.8,1699.29,2869v58.15h-38.77v-56.33l-56.33-94h44.14l32.4,58,31.34-58Z"/><path class="cls-1" d="M1895.14,2879.87q0,22.22-18.82,36.1t-51.14,13.88a143.25,143.25,0,0,1-32.56-3.28,168.61,168.61,0,0,1-26-8.33v-36h4.24a89.77,89.77,0,0,0,26.9,14.73,87.3,87.3,0,0,0,28.62,5.15c2.36,0,5.45-.2,9.29-.6a37.43,37.43,0,0,0,9.39-2,23.52,23.52,0,0,0,7.32-4.54q2.88-2.73,2.88-8.08a10.9,10.9,0,0,0-4.19-8.53q-4.2-3.58-12.27-5.5-8.47-2-17.92-3.79a139.33,139.33,0,0,1-17.72-4.49q-19-6.17-27.31-16.71t-8.32-26.2q0-21,18.82-34.27t48.41-13.28a150,150,0,0,1,29.33,2.88,136.79,136.79,0,0,1,25.09,7.22v34.62h-4.14a80,80,0,0,0-22.26-12.16,76.79,76.79,0,0,0-26.91-4.9,70.65,70.65,0,0,0-9.64.66,38,38,0,0,0-9.24,2.47,17.59,17.59,0,0,0-6.76,4.6,10.06,10.06,0,0,0-2.83,7,10.48,10.48,0,0,0,4.55,9.14q4.53,3.18,17.16,5.8,8.28,1.73,15.9,3.34a162.83,162.83,0,0,1,16.4,4.44q17.26,5.66,25.5,15.39T1895.14,2879.87Z"/><path class="cls-1" d="M2039.31,2805.87h-46.94v121.25H1953.6V2805.87h-46.95V2776.8h132.66Z"/><path class="cls-1" d="M2171.36,2927.12H2062.63V2776.8h108.73v29.07H2101.2v26h65.11v29.07H2101.2v37.16h70.16Z"/><path class="cls-1" d="M2361.46,2927.12H2322.9V2826.47L2295,2891.79h-26.75l-27.86-65.32v100.65h-36.55V2776.8h45l33.82,75.41,33.72-75.41h45Z"/><path class="cls-1" d="M2609.41,2927.12h-40l-10.47-30.39h-55.63l-10.48,30.39h-39.06l55.52-150.32h44.63Zm-59.82-57.95-18.5-53.85-18.5,53.85Z"/><path class="cls-1" d="M2755.09,2824.25a56.76,56.76,0,0,1-3.53,19.73,43.94,43.94,0,0,1-10.1,16.21,61.76,61.76,0,0,1-20,13.42q-11.05,4.54-27.51,4.55h-24.12v49H2631V2776.8h63.8q14.34,0,24.18,2.47a57,57,0,0,1,17.42,7.42,40,40,0,0,1,13.88,15.24Q2755.08,2811.23,2755.09,2824.25Zm-40.08.86a17.72,17.72,0,0,0-3.43-10.93,18.66,18.66,0,0,0-8-6.4,35.92,35.92,0,0,0-11.82-2.66q-5.74-.26-15.34-.26h-6.66v44.93h11.1a90.25,90.25,0,0,0,16.31-1.21,23.26,23.26,0,0,0,10.75-4.83,18.62,18.62,0,0,0,5.4-7.71A31.54,31.54,0,0,0,2715,2825.11Z"/><path class="cls-1" d="M2906.63,2824.25a57,57,0,0,1-3.53,19.73,43.94,43.94,0,0,1-10.1,16.21,61.76,61.76,0,0,1-20,13.42q-11.05,4.54-27.51,4.55h-24.13v49h-38.77V2776.8h63.81q14.34,0,24.18,2.47a56.83,56.83,0,0,1,17.41,7.42,39.84,39.84,0,0,1,13.88,15.24Q2906.63,2811.23,2906.63,2824.25Zm-40.08.86a17.78,17.78,0,0,0-3.43-10.93,18.62,18.62,0,0,0-8-6.4,35.86,35.86,0,0,0-11.81-2.66q-5.76-.26-15.35-.26h-6.66v44.93h11.11a90.13,90.13,0,0,0,16.3-1.21,23.21,23.21,0,0,0,10.75-4.83,18.62,18.62,0,0,0,5.4-7.71A31.53,31.53,0,0,0,2866.55,2825.11Z"/></svg>