<svg id="Layer_1" data-name="Layer 1" xmlns="http://www.w3.org/2000/svg" viewBox="0 0 3000 3000"><defs><style>.cls-1{fill:#01e8dc;}</style></defs><g id="Layer_2" data-name="Layer 2"><g id="Layer_1-2" data-name="Layer 1-2"><g id="Layer_2-2" data-name="Layer 2-2"><path class="cls-1" d="M1495.43,2698.64h-.08c-150.48,0-297.18-24.93-436-74.08-145.21-51.4-275.28-127.11-386.59-225-119.19-104.84-213-232-278.89-377.83-70.05-155.12-107.18-329.21-110.37-517.42l0-2.44,0-2.44c3.22-188.24,40.38-362.35,110.45-517.47,65.89-145.88,159.75-273,279-377.84,111.34-97.9,241.43-173.6,386.65-225,138.81-49.11,285.48-74,435.92-74h.12c150.47,0,297.16,24.94,436,74.09,145.21,51.4,275.27,127.11,386.58,225C2437.35,709,2531.17,836.16,2597,982c70,155.11,107.17,329.19,110.35,517.4l0,2.44,0,2.43c-3.21,188.25-40.37,362.35-110.43,517.48-65.89,145.87-159.74,273-278.94,377.84-111.33,97.91-241.42,173.61-386.64,225C1792.57,2673.73,1645.88,2698.64,1495.43,2698.64ZM569.93,1501.85c11.8,625.43,487.71,910.33,925.44,910.36s913.69-284.84,925.58-910.36c-11.79-625.4-487.68-910.3-925.39-910.34h-.09C1057.74,591.51,581.83,876.37,569.93,1501.85Z"/><path class="cls-1" d="M1505.69,2155.82a701,701,0,0,1-234.57-39.89c-78.83-27.9-149.59-69.12-210.29-122.51a605.67,605.67,0,0,1-152.85-207c-37.9-83.91-58-177.53-59.72-278.27l0-2.44,0-2.45C850,1402.52,870.07,1308.89,908,1225a605.75,605.75,0,0,1,152.84-207c60.7-53.39,131.46-94.61,210.29-122.51a701.06,701.06,0,0,1,234.53-39.88h0a701.08,701.08,0,0,1,234.58,39.9c78.84,27.91,149.59,69.14,210.3,122.53a605.79,605.79,0,0,1,152.83,207c37.9,83.91,58,177.54,59.68,278.28l0,2.44,0,2.43c-1.72,100.74-21.81,194.37-59.7,278.27a605.87,605.87,0,0,1-152.83,207c-60.7,53.39-131.45,94.61-210.28,122.52A701.14,701.14,0,0,1,1505.69,2155.82Zm-371-650.11c5.48,251.19,190,363.68,371,363.68s365.45-112.5,370.93-363.7c-5.44-251.19-190-363.68-371-363.69S1140.17,1254.48,1134.7,1505.71Z"/><path class="cls-1" d="M2401.46,650.51l-.91,0c-33.27-.56-64.23-7.21-92-19.77a201.36,201.36,0,0,1-68.81-50.83c-34.72-39.5-53.83-91.83-53.83-147.37s19.14-107.84,53.86-147.3a201.25,201.25,0,0,1,68.81-50.79c27.79-12.54,58.75-19.18,92-19.73h1.8c33.27.57,64.24,7.22,92,19.77a201.29,201.29,0,0,1,68.83,50.81c34.74,39.48,53.87,91.8,53.87,147.33S2598,540.45,2563.23,579.93a201.39,201.39,0,0,1-68.83,50.8c-27.79,12.54-58.76,19.19-92,19.76Zm0-328.39c-79.77,1.76-108.12,60.5-108.13,110.42s28.33,108.75,108.14,110.54c79.87-1.81,108.24-60.55,108.24-110.47S2481.32,323.91,2401.44,322.12Z"/><path class="cls-1" d="M445.54,605.6l-37.7-53c-35.49-49.91-48.94-106-38.9-162.07,8.85-49.43,35.84-95.44,76-129.56s90-53.34,140.22-54.1c57.06-.86,110.18,21.44,153.63,64.49l46.76,46.32-91.4,60.95-31.1-29.7c-35.76-34.15-84-30.43-117.16-15.55-32.79,14.69-67.23,48-65.55,97.4l0,.94v.94a109.5,109.5,0,0,0,17.23,59.12l22.68,35.51Z"/><path class="cls-1" d="M1497.5,2983.06c-307.07,0-600.13-87.81-825.21-247.3l-56.84-40.28,53.42-44.72c40.19-33.65,39.72-84.19,25.87-120.27-13.65-35.58-46.89-72.93-99.29-71.06l-1.75,0c-78.59.24-107.09,59-107.61,109.31s26.7,109.67,105.15,111.55l1.63,107.31c-3.72.21-7.44.31-11.14.31-76.5,0-146.86-43-185.58-114.08a225.36,225.36,0,0,1-27.78-112,204.94,204.94,0,0,1,15.92-75.41,1243.11,1243.11,0,0,1-145.4-187.69c-48.7-76.9-90.3-160.68-123.65-249a1515.06,1515.06,0,0,1-73.85-270,1610.09,1610.09,0,0,1,.25-560.81,1515.47,1515.47,0,0,1,74.12-270c33.44-88.32,75.13-172.09,123.91-249,50.54-79.66,109.15-152.63,174.2-216.86l43.07-42.53L494,488.36c28.81,37.13,64.59,53.32,103.45,46.83,41.56-6.94,80.09-39.61,93.69-79.45,12.73-37.3,2.51-75.31-29.55-109.91L620.07,301l49.82-35.43C895.32,105.24,1189.08,17,1497.06,16.94c293.67,0,574.4,80.24,795.31,226.69,35.1-21,74.06-31,114.59-29.39,48.16,2,95.84,20.94,134.27,53.45s65,76.42,74.92,123.61c8.39,40.06,4.74,80.55-10.5,119a1484.3,1484.3,0,0,1-.78,1980.34c15.76,38.65,19.75,79.43,11.48,119.84-9.72,47.59-36.44,91.85-75.21,124.62s-86.88,51.75-135.44,53.44c-40.92,1.43-80.15-9.09-115.39-30.68C2069.88,2903.32,1790.05,2983.05,1497.5,2983.06Zm-714.91-302.7c206.12,130.08,460.54,195.16,714.85,195.16,274.6,0,549.1-75.79,763.09-227.4l35.08-24.86,31.93,28.79c23.31,21,47.9,29.18,71,29.18,28.37,0,54.49-12.3,73.27-28.18,34-28.77,60.47-83.34,22.9-142.43l-22.43-35.28,28.69-30.4c242.15-256.52,375.23-592,374.72-944.8V1500c.53-352.22-132.18-687.39-373.68-943.77l-28.32-30.06,21.78-35.09c36.47-58.74,10.07-112.87-23.61-141.37s-91.41-45.63-143.18-.06l-31.93,28.12-34.68-24.66C2047.62,200.58,1772.33,124.3,1497.12,124.3c-256.43,0-512.79,66.18-720.11,198.55a214.64,214.64,0,0,1,22.2,58.34,203.4,203.4,0,0,1-6.38,109.25c-13,38-36.65,72.35-68.48,99.34s-69.57,44.75-109.17,51.36a203.39,203.39,0,0,1-108.75-11.43,214.36,214.36,0,0,1-54.27-31.61C243.35,826,124.47,1151.18,124.32,1499.4c-.15,348.81,118.85,674.53,328.12,902.57a198.86,198.86,0,0,1,49.38-31.22c27.49-12.2,58-18.49,90.69-18.7A200.89,200.89,0,0,1,720,2391.83c33.45,24.86,59.37,59.5,75,100.18s19.61,84.2,11.39,125.39A202.86,202.86,0,0,1,782.59,2680.36Z"/><path class="cls-1" d="M593.92,2787.94c-1.75,0-3.49,0-5.24-.06l.18-107.39a109.45,109.45,0,0,0,73.26-30.09l30.9-29.32,97.77,64.34L739.28,2732A216.06,216.06,0,0,1,593.92,2787.94Z"/><path class="cls-1" d="M2401.46,2788l-.91,0c-33.27-.56-64.23-7.21-92-19.77a201.49,201.49,0,0,1-68.81-50.83c-34.72-39.5-53.83-91.83-53.83-147.37s19.14-107.84,53.86-147.3a201.25,201.25,0,0,1,68.81-50.79c27.79-12.54,58.75-19.18,92-19.73h1.8c33.27.57,64.23,7.22,92,19.77a201.39,201.39,0,0,1,68.83,50.8c34.74,39.49,53.87,91.81,53.87,147.34S2598,2678,2563.23,2717.43a201.39,201.39,0,0,1-68.83,50.8c-27.79,12.54-58.76,19.19-92,19.76Zm0-328.39c-79.77,1.76-108.12,60.5-108.13,110.42s28.32,108.75,108.14,110.54c79.87-1.81,108.24-60.55,108.24-110.47S2481.32,2461.41,2401.44,2459.62Z"/></g></g></g></svg>